:version 1.10
:name ASF
:units
  mass 1
  length 1
  angle deg
:documentation
  ASF file generated by Kaydara
:root
  axis xyz
  order  tx ty tz rx ry rz
  position 0 0 0
  orientation 0 0 0
:bonedata
  begin
    id 1
    name RightUpLegDummy
    direction -0.718183 -0.695806 0.00816078
    length 4.904
    axis 0 0 0 xyz
  end
  begin
    id 2
    name RightUpLeg
    direction -0.0736652 -0.994202 0.0783343
    length 17.4976
    axis -2.72909 -3.00389 -4.00133 xyz
    dof rx ry rz
  end
  begin
    id 3
    name RightLeg
    direction -0.0389037 -0.994596 -0.0962598
    length 16.5821
    axis 3.95836 -18.5909 -4.46993 xyz
    dof rx ry rz
  end
  begin
    id 4
    name RightFoot
    direction -0.311643 -0.412678 0.855906
    length 3.77069
    axis -1.99483 -18.8351 -3.27644 xyz
    dof rx ry rz
  end
  begin
    id 5
    name RightToes
    direction -0.317852 0.0389852 0.947339
    length 3.85082
    axis -2.00228 -18.1713 -3.25211 xyz
    dof rx ry rz
  end
  begin
    id 6
    name SpineDummy
    direction 8.3039e-015 1 4.44677e-016
    length 4.6813
    axis 0 0 0 xyz
  end
  begin
    id 7
    name Spine
    direction -0.000262373 0.999988 0.00493267
    length 10.1015
    axis -0.00246081 0.00062579 0.0150362 xyz
    dof rx ry rz
  end
  begin
    id 8
    name Spine1
    direction 0 0 0
    length 0
    axis -0.00349562 0.000650293 0.0196666 xyz
    dof rx ry rz
  end
  begin
    id 9
    name HEadDummy
    direction -0.000343232 0.999999 0.00123745
    length 3.43865
    axis -0.00349562 0.000650293 0.0196666 xyz
  end
  begin
    id 10
    name HEad
    direction -0.0461221 0.980933 0.188796
    length 5.12695
    axis -0.00351404 -7.04812 0.0199272 xyz
    dof rx ry rz
  end
  begin
    id 11
    name LeftShoulder1Dummy
    direction 0.998904 -0.0399089 -0.0244534
    length 3.5433
    axis -0.00349562 0.000650293 0.0196666 xyz
  end
  begin
    id 12
    name LeftShoulder1
    direction 0.99951 1.64443e-005 0.0312999
    length 4.05031
    axis -0.00349562 0.000650293 0.0196666 xyz
    dof rx ry rz
  end
  begin
    id 13
    name LeftArm
    direction 0.984791 0.0515299 0.165927
    length 12.9126
    axis -64.823 -10.7743 5.20463 xyz
    dof rx ry rz
  end
  begin
    id 14
    name LeftForeArm
    direction 0.984968 0.0534808 0.16425
    length 10.8596
    axis -30.0462 -7.70601 1.87451 xyz
    dof rx ry rz
  end
  begin
    id 15
    name LeftHand
    direction 0.975871 0.0289682 0.216418
    length 6.62295
    axis -20.1348 -6.98077 1.86072 xyz
    dof rx ry rz
  end
  begin
    id 16
    name RightShoulderDummy
    direction -0.998877 -0.0405946 -0.0244307
    length 3.5433
    axis -0.00349562 0.000650293 0.0196666 xyz
  end
  begin
    id 17
    name RightShoulder
    direction -0.998933 -0.0249743 -0.0388558
    length 4.05031
    axis -0.0205316 -4.02113 1.41395 xyz
    dof rx ry rz
  end
  begin
    id 18
    name RightArm
    direction -0.997559 0.068664 0.0127103
    length 12.9638
    axis -67.3882 1.84188 -6.15987 xyz
    dof rx ry rz
  end
  begin
    id 19
    name RightForeArm
    direction -0.991508 0.0912848 0.0926241
    length 10.8312
    axis -22.1975 3.41087 -4.28711 xyz
    dof rx ry rz
  end
  begin
    id 20
    name RightHand
    direction -0.989262 0.0600788 0.133232
    length 6.57864
    axis -12.2911 2.17515 -4.39675 xyz
    dof rx ry rz
  end
  begin
    id 21
    name LeftUpLegDummy
    direction 0.718183 -0.695806 0.00816078
    length 4.904
    axis 0 0 0 xyz
  end
  begin
    id 22
    name LeftUpLeg
    direction 0.0831398 -0.99469 0.0606531
    length 17.4976
    axis -1.71016 2.29552 4.63832 xyz
    dof rx ry rz
  end
  begin
    id 23
    name LeftLeg
    direction 0.0498442 -0.991778 -0.117862
    length 16.5821
    axis 5.13757 15.5727 5.13348 xyz
    dof rx ry rz
  end
  begin
    id 24
    name LeftFoot
    direction 0.269026 -0.433896 0.85986
    length 3.77069
    axis -0.576502 15.6961 4.10267 xyz
    dof rx ry rz
  end
  begin
    id 25
    name LeftToes
    direction 0.277311 0.0251143 0.960452
    length 3.85048
    axis -0.576502 15.6961 4.10267 xyz
    dof rx ry rz
  end
:hierarchy
  begin
    root RightUpLegDummy SpineDummy LeftUpLegDummy
    RightUpLegDummy RightUpLeg
    RightUpLeg RightLeg
    RightLeg RightFoot
    RightFoot RightToes
    SpineDummy Spine
    Spine Spine1
    Spine1 HEadDummy LeftShoulder1Dummy RightShoulderDummy
    HEadDummy HEad
    LeftShoulder1Dummy LeftShoulder1
    LeftShoulder1 LeftArm
    LeftArm LeftForeArm
    LeftForeArm LeftHand
    RightShoulderDummy RightShoulder
    RightShoulder RightArm
    RightArm RightForeArm
    RightForeArm RightHand
    LeftUpLegDummy LeftUpLeg
    LeftUpLeg LeftLeg
    LeftLeg LeftFoot
    LeftFoot LeftToes
  end

:SAMPLES-PER-SECOND 30
:FULLY-SPECIFIED
:DEGREES
61
root  5.56744 17.3616 -81.627 35.442 -24.8906 -25.342
RightUpLeg  -100.91 5.36006 30.1258
RightLeg  121.503 20.3297 -7.27974
RightFoot  -38.5086 0.371455 1.06476
RightToes  5.82077e-011 -3.18055e-015 -2.98177e-016
Spine  47.1165 -0.344438 8.57139
Spine1  2.35544 6.04513 -14.565
HEad  -13.6189 10.6591 -6.1787
LeftShoulder1  -3.88251e-019 9.70628e-020 -3.87848e-018
LeftArm  -7.54587 -22.7885 -47.8285
LeftForeArm  -6.36109 -6.16471 -1.9176
LeftHand  -6.8401 -7.55942 58.1139
RightShoulder  0.327515 3.25477 -0.225315
RightArm  19.6557 37.6834 60.5951
RightForeArm  20.1536 23.0321 -13.2155
RightHand  -1.89292 9.05045 -15.157
LeftUpLeg  -64.8136 22.2763 0.370036
LeftLeg  139.669 -31.4697 14.3313
LeftFoot  -50.8191 -14.2275 -39.7357
LeftToes  9.37148e-011 4.50685e-012 -4.11107e-011
62
root  5.67034 16.9853 -80.9568 35.9843 -25.0409 -25.1893
RightUpLeg  -101.792 4.80822 28.4077
RightLeg  124.086 20.2578 -6.57743
RightFoot  -39.2415 0.719145 2.52898
RightToes  5.82077e-011 -3.18055e-015 -2.98177e-016
Spine  46.0508 0.0239267 10.2724
Spine1  2.59083 7.5527 -16.3939
HEad  -12.4229 8.34072 -6.37717
LeftShoulder1  -3.88251e-019 9.70628e-020 -3.87848e-018
LeftArm  -6.71926 -22.8468 -51.9715
LeftForeArm  -4.05964 -6.06025 -2.68604
LeftHand  -7.48714 -8.02394 60.7592
RightShoulder  0.448726 3.70888 0.442317
RightArm  17.3752 36.8058 59.9597
RightForeArm  22.4965 21.4349 -12.3507
RightHand  -2.09359 9.24951 -16.5083
LeftUpLeg  -63.3881 22.1121 -1.22985
LeftLeg  141.287 -31.8743 13.8674
LeftFoot  -49.5646 -14.0005 -40.4727
LeftToes  9.37148e-011 4.50685e-012 -4.11107e-011
63
root  5.7542 16.696 -80.3106 36.4037 -24.6077 -25.2538
RightUpLeg  -102.274 4.09561 27.2621
RightLeg  126.201 20.5047 -6.4493
RightFoot  -39.4681 1.07258 4.01942
RightToes  5.82077e-011 -3.18055e-015 -2.98177e-016
Spine  45.1698 0.256211 11.7883
Spine1  2.8412 8.67833 -17.4779
HEad  -11.9019 6.66967 -6.8647
LeftShoulder1  -3.88251e-019 9.70628e-020 -3.87848e-018
LeftArm  -6.58014 -21.8424 -54.9214
LeftForeArm  -1.96441 -7.2622 -3.081
LeftHand  -8.34392 -8.83517 63.2201
RightShoulder  0.574384 4.03737 1.23554
RightArm  14.7245 36.2246 60.6547
RightForeArm  24.3249 19.5071 -11.1693
RightHand  -2.2399 9.06691 -17.852
LeftUpLeg  -61.6096 22.0563 -1.65326
LeftLeg  142.7 -31.4908 12.9814
LeftFoot  -48.8996 -13.4612 -39.7323
LeftToes  9.37148e-011 4.50685e-012 -4.11107e-011
64
root  5.80281 16.461 -79.688 36.6348 -23.6076 -24.9688
RightUpLeg  -102.732 3.09583 26.1781
RightLeg  128.115 20.9844 -6.63295
RightFoot  -39.3864 1.4954 5.84816
RightToes  5.82077e-011 -3.18055e-015 -2.98177e-016
Spine  44.3557 0.337287 13.1853
Spine1  2.89201 9.4374 -18.0904
HEad  -11.3137 4.92732 -7.16582
LeftShoulder1  -3.88251e-019 9.70628e-020 -3.87848e-018
LeftArm  -5.91745 -20.4669 -57.426
LeftForeArm  -0.202034 -8.83192 -3.68962
LeftHand  -8.84148 -9.47999 63.8347
RightShoulder  0.703766 4.29427 2.09879
RightArm  12.5786 35.624 61.5876
RightForeArm  24.8922 17.5172 -10.0945
RightHand  -2.26503 8.44263 -18.8279
LeftUpLeg  -59.908 21.7789 -2.01437
LeftLeg  143.512 -31.122 12.3958
LeftFoot  -48.7961 -12.9751 -38.4899
LeftToes  9.37148e-011 4.50685e-012 -4.11107e-011
65
root  5.77103 16.3048 -79.0857 36.5517 -22.0495 -23.9191
RightUpLeg  -102.874 1.69104 24.5181
RightLeg  129.998 21.2441 -6.53455
RightFoot  -39.7004 2.10862 8.35934
RightToes  5.82077e-011 -3.18055e-015 -2.98177e-016
Spine  43.6952 0.376457 13.9854
Spine1  2.75666 9.6574 -17.9309
HEad  -10.7675 3.17943 -6.89653
LeftShoulder1  -3.88251e-019 9.70628e-020 -3.87848e-018
LeftArm  -5.21309 -19.3678 -60.1081
LeftForeArm  1.51178 -9.15724 -4.28386
LeftHand  -9.23435 -9.85907 64.7344
RightShoulder  0.832494 4.60535 2.86041
RightArm  11.327 34.9158 61.9431
RightForeArm  24.5243 16.1893 -9.47602
RightHand  -2.2462 7.90499 -19.4019
LeftUpLeg  -58.9821 20.928 -2.75792
LeftLeg  143.595 -31.4124 12.5441
LeftFoot  -47.9236 -12.3631 -37.6884
LeftToes  9.37148e-011 4.50685e-012 -4.11107e-011
66
root  5.64793 16.2652 -78.509 36.2536 -19.9629 -22.2744
RightUpLeg  -102.317 0.0646997 22.2628
RightLeg  131.72 21.1253 -6.06048
RightFoot  -40.5647 2.91092 11.3522
RightToes  5.82077e-011 -3.18055e-015 -2.98177e-016
Spine  43.3758 0.550063 14.1369
Spine1  2.53581 9.53694 -16.8457
HEad  -10.7421 1.19958 -6.1924
LeftShoulder1  -3.88251e-019 9.70628e-020 -3.87848e-018
LeftArm  -5.43377 -18.6174 -63.1607
LeftForeArm  3.41661 -8.64889 -4.39349
LeftHand  -9.70008 -10.1469 66.3106
RightShoulder  0.923017 4.91192 3.27213
RightArm  10.5772 34.2276 61.2401
RightForeArm  24.2768 15.5907 -9.17144
RightHand  -2.35035 7.8269 -20.3856
LeftUpLeg  -58.7502 19.3158 -3.0238
LeftLeg  143.362 -31.5789 12.7503
LeftFoot  -45.9417 -11.4225 -37.063
LeftToes  9.37148e-011 4.50685e-012 -4.11107e-011
67
root  5.47144 16.3097 -77.9495 36.4442 -17.8081 -20.3326
RightUpLeg  -101.923 -1.14926 19.6058
RightLeg  133.129 20.9848 -5.65186
RightFoot  -41.15 3.71407 14.2982
RightToes  5.82077e-011 -3.18055e-015 -2.98177e-016
Spine  43.0414 0.962221 14.0264
Spine1  2.0554 9.49182 -15.6414
HEad  -11.1943 -1.42858 -5.32763
LeftShoulder1  -3.88251e-019 9.70628e-020 -3.87848e-018
LeftArm  -6.17041 -18.0702 -66.4349
LeftForeArm  5.41475 -8.46696 -4.24525
LeftHand  -9.98765 -10.3611 67.1114
RightShoulder  0.99827 5.17108 3.59444
RightArm  9.32076 33.6486 59.7164
RightForeArm  24.6698 14.8322 -8.996
RightHand  -2.65424 7.88848 -22.8326
LeftUpLeg  -58.6823 17.0349 -2.4942
LeftLeg  143.203 -30.2398 11.9623
LeftFoot  -44.4768 -10.5504 -35.9676
LeftToes  9.37148e-011 4.50685e-012 -4.11107e-011
68
root  5.26747 16.438 -77.419 36.9705 -15.635 -18.7159
RightUpLeg  -101.428 -1.65824 17.4829
RightLeg  133.908 21.3684 -5.88661
RightFoot  -41.0485 4.42252 17.1579
RightToes  5.82077e-011 -3.18055e-015 -2.98177e-016
Spine  43.1229 1.3705 14.1635
Spine1  1.0128 9.65116 -14.718
HEad  -11.7231 -4.35405 -4.40857
LeftShoulder1  -3.88251e-019 9.70628e-020 -3.87848e-018
LeftArm  -6.47489 -17.6149 -69.5233
LeftForeArm  7.21811 -8.58672 -4.39975
LeftHand  -10.2265 -10.5174 67.8216
RightShoulder  1.17389 5.51697 4.60392
RightArm  7.18244 33.2649 58.0171
RightForeArm  24.4058 13.6536 -9.10114
RightHand  -2.94935 7.66371 -25.7152
LeftUpLeg  -57.8434 14.4934 -0.213879
LeftLeg  143.205 -26.6033 9.57683
LeftFoot  -44.7275 -10.0644 -34.1184
LeftToes  9.37148e-011 4.50685e-012 -4.11107e-011
